<?xml version="1.0" standalone="no"?>
<!DOCTYPE svg PUBLIC "-//W3C//DTD SVG 20010904//EN"
 "http://www.w3.org/TR/2001/REC-SVG-20010904/DTD/svg10.dtd">
<svg version="1.0" xmlns="http://www.w3.org/2000/svg"
 width="500.000000pt" height="500.000000pt" viewBox="0 0 500.000000 500.000000"
 preserveAspectRatio="xMidYMid meet">
<metadata>
Created by potrace 1.11, written by Peter Selinger 2001-2013
</metadata>
<g transform="translate(0.000000,500.000000) scale(0.100000,-0.100000)"
fill="#000000" stroke="none">
<path d="M2460 4939 c-19 -32 -38 -59 -42 -59 -5 0 -8 -4 -8 -9 0 -6 -36 -65
-80 -133 -45 -68 -83 -131 -87 -140 -3 -10 -9 -18 -14 -18 -5 0 -9 -7 -9 -15
0 -8 -4 -15 -10 -15 -5 0 -10 -5 -10 -12 0 -6 -11 -26 -25 -44 -14 -18 -25
-37 -25 -43 0 -6 -4 -11 -10 -11 -5 0 -10 -6 -10 -14 0 -8 -6 -21 -13 -28 -16
-17 -111 -168 -120 -190 -3 -10 -11 -18 -17 -18 -5 0 -10 -5 -10 -10 0 -12
-52 -94 -62 -98 -5 -2 -8 -8 -8 -13 0 -6 -18 -37 -40 -70 -22 -33 -40 -62 -40
-64 0 -2 -22 -36 -48 -77 -27 -40 -51 -81 -55 -90 -3 -10 -11 -18 -16 -18 -5
0 -12 -11 -15 -25 -4 -14 -11 -25 -16 -25 -6 0 -10 -7 -10 -15 0 -8 -3 -15 -8
-15 -4 0 -13 -13 -20 -28 -6 -16 -21 -38 -32 -50 -12 -12 -18 -22 -16 -22 3 0
-24 -46 -61 -102 -36 -57 -78 -123 -94 -148 -15 -25 -36 -54 -46 -64 -10 -11
-12 -16 -5 -12 6 4 12 3 12 -2 0 -5 12 -7 28 -5 15 2 34 4 42 3 107 -5 167 -3
178 4 7 5 12 5 12 -1 0 -5 23 -8 50 -7 28 0 50 -1 50 -3 0 -11 -36 -69 -48
-76 -7 -5 -10 -12 -7 -18 4 -5 1 -9 -4 -9 -6 0 -11 -7 -11 -15 0 -8 -4 -15 -9
-15 -5 0 -14 -13 -21 -30 -7 -16 -16 -30 -21 -30 -5 0 -9 -4 -9 -10 0 -8 -49
-87 -215 -345 -17 -27 -57 -89 -88 -137 -32 -48 -57 -90 -57 -93 0 -6 -39 -64
-50 -75 -8 -8 -28 -41 -46 -77 -9 -18 -20 -33 -25 -33 -5 0 -9 -4 -9 -10 0 -5
-30 -57 -67 -115 -38 -58 -92 -142 -120 -187 -29 -46 -73 -114 -98 -153 l-45
-70 193 -3 c105 -1 198 -4 205 -7 9 -3 2 -20 -23 -55 -19 -27 -35 -54 -35 -60
0 -5 -4 -10 -10 -10 -5 0 -10 -4 -10 -9 0 -5 -16 -33 -35 -62 -49 -74 -51 -77
-90 -139 -19 -30 -39 -60 -45 -67 -5 -7 -10 -15 -10 -18 0 -4 -13 -26 -30 -50
-16 -24 -30 -48 -30 -54 0 -6 -3 -11 -8 -11 -4 0 -18 -20 -32 -45 -14 -25 -28
-45 -31 -45 -4 0 -10 -8 -13 -17 -3 -10 -12 -27 -19 -38 -42 -67 -74 -117
-108 -167 -22 -32 -39 -60 -39 -63 0 -3 -9 -18 -19 -33 -10 -15 -45 -67 -77
-117 -31 -49 -74 -117 -96 -150 -21 -33 -43 -66 -48 -72 -6 -7 -8 -13 -5 -13
3 0 -3 -10 -15 -22 -11 -12 -20 -26 -20 -31 0 -6 -11 -25 -25 -43 -14 -18 -25
-37 -25 -43 0 -6 -4 -11 -10 -11 -5 0 -10 -7 -10 -15 0 -8 -4 -15 -10 -15 -5
0 -10 -7 -10 -15 0 -8 -5 -15 -11 -15 -5 0 -7 -4 -4 -10 3 -5 2 -10 -3 -10 -5
0 -17 -17 -28 -37 -10 -21 -21 -40 -24 -43 -12 -11 -40 -60 -40 -70 0 -7 738
-10 2355 -10 1295 0 2355 3 2355 6 0 12 -34 64 -42 64 -4 0 -8 6 -8 13 0 6
-14 30 -30 51 -17 22 -30 44 -30 50 -1 6 -14 27 -30 46 -17 19 -30 38 -30 42
0 10 -62 102 -72 106 -4 2 -8 12 -8 22 0 10 -7 21 -16 24 -8 3 -12 10 -9 16 3
5 2 10 -2 10 -5 0 -17 17 -28 37 -11 20 -24 42 -30 48 -13 14 -30 42 -55 87
-11 21 -26 38 -32 38 -6 0 -9 3 -5 6 3 3 -9 28 -26 54 -33 49 -148 228 -257
400 -33 52 -65 102 -70 110 -75 113 -130 202 -130 210 0 6 -4 10 -8 10 -5 0
-15 12 -22 28 -13 24 -59 96 -112 174 -10 15 -18 30 -18 33 0 3 92 5 205 5
130 0 205 4 205 10 0 6 -5 10 -12 10 -6 0 -9 3 -5 6 3 3 1 11 -4 18 -19 22
-129 197 -129 206 0 4 -3 10 -7 12 -9 4 -53 65 -53 73 0 3 -22 39 -50 80 -27
41 -50 78 -50 84 0 5 -3 11 -7 13 -9 4 -53 65 -53 73 0 3 -22 39 -50 80 -27
41 -50 77 -50 80 0 3 -5 11 -10 18 -14 16 -124 187 -140 218 -7 13 -16 26 -20
29 -3 3 -17 24 -30 48 -13 23 -27 42 -32 42 -4 0 -8 4 -8 10 0 9 -69 123 -90
147 -5 7 -10 17 -10 23 0 5 -4 10 -10 10 -5 0 -10 6 -10 13 0 8 -9 22 -20 32
-11 10 -20 22 -20 26 0 5 -18 36 -40 70 -40 62 -53 101 -27 82 14 -11 87 -10
105 0 6 5 12 5 12 0 0 -4 54 -8 120 -8 115 0 120 1 114 20 -4 11 -11 22 -15
23 -5 2 -9 10 -9 18 0 8 -4 14 -10 14 -5 0 -10 7 -10 15 0 8 -4 15 -10 15 -5
0 -10 5 -10 10 0 6 -34 62 -75 125 -41 64 -75 118 -75 121 0 2 -5 10 -11 17
-14 17 -91 137 -108 170 -8 15 -18 27 -23 27 -4 0 -8 5 -8 10 0 6 -27 51 -60
101 -33 50 -60 93 -60 95 0 3 -5 10 -10 17 -24 29 -70 103 -70 115 0 6 -4 12
-8 12 -5 0 -15 12 -23 28 -8 15 -22 36 -31 46 -10 10 -15 22 -13 26 3 5 -2 10
-10 14 -8 3 -15 10 -15 16 0 12 -91 153 -103 158 -4 2 -5 8 -1 13 3 5 1 9 -4
9 -5 0 -15 14 -22 30 -7 17 -16 30 -21 30 -5 0 -9 4 -9 9 0 5 -36 65 -80 133
-44 67 -83 130 -87 138 -4 8 -9 17 -13 20 -3 3 -28 40 -54 83 -27 42 -51 79
-55 81 -3 2 -22 -22 -41 -55z m250 -2424 c59 -11 183 -55 230 -82 80 -46 131
-90 210 -183 59 -69 131 -261 145 -387 l5 -51 -62 -21 c-66 -21 -362 -110
-388 -117 -108 -26 -735 -223 -737 -231 -6 -18 63 -121 110 -165 203 -191 533
-175 762 35 37 34 71 62 75 62 10 0 200 -176 200 -186 0 -16 -128 -137 -186
-176 -115 -78 -247 -129 -386 -149 -64 -9 -244 -6 -306 6 -228 41 -371 125
-528 307 -45 52 -123 232 -139 322 -8 40 -19 160 -18 196 0 60 12 185 17 194
3 4 8 23 11 41 3 18 19 68 36 110 96 250 316 424 597 474 76 13 280 14 352 1z"/>
<path d="M2458 2235 c-1 -2 -21 -6 -43 -9 -22 -3 -72 -22 -112 -41 -147 -73
-230 -213 -247 -418 -4 -51 -2 -57 12 -53 9 3 154 46 322 96 520 155 545 162
552 169 13 12 -37 95 -85 143 -82 82 -156 109 -304 114 -50 1 -93 1 -95 -1z"/>
</g>
</svg>
